<?xml version="1.0" encoding="UTF-8"?>
<svg xmlns="http://www.w3.org/2000/svg" xmlns:xlink="http://www.w3.org/1999/xlink" width="20pt" height="20pt" viewBox="0 0 20 20" version="1.1">
<g id="surface1">
<path style=" stroke:none;fill-rule:nonzero;fill:rgb(100%,100%,100%);fill-opacity:1;" d="M 19.566406 13.902344 L 19.578125 13.898438 L 11.054688 5.328125 L 11.042969 1.296875 L 6.921875 0.195312 L 6.480469 0.632812 L 8.675781 2.820312 L 6.539062 4.960938 L 4.347656 2.773438 L 3.90625 3.210938 L 5.011719 7.328125 L 8.933594 7.34375 L 8.90625 7.363281 L 17.484375 15.984375 L 17.496094 15.976562 C 18.070312 16.535156 18.988281 16.535156 19.550781 15.964844 C 20.125 15.398438 20.128906 14.480469 19.566406 13.902344 Z M 19.011719 15.421875 C 18.757812 15.675781 18.34375 15.675781 18.09375 15.421875 C 17.839844 15.167969 17.839844 14.757812 18.09375 14.503906 C 18.34375 14.25 18.757812 14.25 19.011719 14.503906 C 19.265625 14.757812 19.269531 15.167969 19.011719 15.421875 Z M 19.011719 15.421875 "/>
<path style=" stroke:none;fill-rule:nonzero;fill:rgb(100%,100%,100%);fill-opacity:1;" d="M 1.835938 9.070312 C 1.90625 9.085938 3.539062 9.410156 3.886719 11.25 C 3.445312 11.722656 3.167969 12.378906 3.167969 13.105469 C 3.167969 13.113281 3.171875 13.121094 3.171875 13.125 L 7.820312 13.125 C 7.820312 13.117188 7.820312 13.113281 7.820312 13.105469 C 7.820312 12.378906 7.542969 11.722656 7.101562 11.25 C 7.453125 9.410156 9.082031 9.085938 9.152344 9.070312 C 9.304688 9.042969 9.40625 8.894531 9.378906 8.742188 C 9.351562 8.589844 9.207031 8.488281 9.050781 8.515625 C 9.03125 8.519531 7.152344 8.882812 6.613281 10.851562 C 6.28125 10.652344 5.898438 10.539062 5.492188 10.539062 C 5.089844 10.539062 4.707031 10.652344 4.375 10.855469 C 3.835938 8.882812 1.957031 8.519531 1.933594 8.515625 C 1.785156 8.488281 1.636719 8.589844 1.609375 8.742188 C 1.578125 8.894531 1.683594 9.042969 1.835938 9.070312 Z M 1.835938 9.070312 "/>
<path style=" stroke:none;fill-rule:nonzero;fill:rgb(100%,100%,100%);fill-opacity:1;" d="M 10.722656 11.332031 C 10.527344 11.269531 10.316406 11.382812 10.253906 11.582031 C 10.253906 11.582031 9.792969 13.066406 9.695312 13.382812 C 9.496094 13.4375 8.886719 13.609375 8.464844 13.726562 C 8.449219 13.660156 8.4375 13.59375 8.421875 13.527344 L 2.566406 13.527344 C 2.550781 13.59375 2.535156 13.660156 2.523438 13.726562 C 2.101562 13.605469 1.492188 13.4375 1.292969 13.382812 C 1.195312 13.066406 0.734375 11.582031 0.734375 11.582031 C 0.675781 11.382812 0.464844 11.269531 0.265625 11.332031 C 0.0664062 11.390625 -0.046875 11.601562 0.015625 11.800781 L 0.695312 13.996094 L 2.414062 14.472656 C 2.402344 14.632812 2.394531 14.792969 2.394531 14.957031 C 2.394531 15.15625 2.40625 15.355469 2.421875 15.550781 L 0.707031 16.320312 L 0.167969 19.347656 C 0.132812 19.554688 0.269531 19.75 0.476562 19.785156 C 0.679688 19.820312 0.875 19.6875 0.910156 19.480469 C 0.910156 19.480469 1.316406 17.183594 1.378906 16.839844 C 1.542969 16.765625 2.085938 16.523438 2.550781 16.320312 C 2.957031 18.050781 4.121094 19.308594 5.496094 19.308594 C 6.871094 19.308594 8.035156 18.054688 8.445312 16.320312 C 8.90625 16.523438 9.449219 16.765625 9.617188 16.839844 C 9.671875 17.183594 10.082031 19.480469 10.082031 19.480469 C 10.117188 19.6875 10.3125 19.820312 10.519531 19.785156 C 10.722656 19.75 10.855469 19.554688 10.824219 19.347656 L 10.285156 16.320312 L 8.570312 15.550781 C 8.585938 15.359375 8.597656 15.160156 8.597656 14.960938 C 8.597656 14.796875 8.589844 14.632812 8.578125 14.476562 L 10.296875 13.996094 L 10.976562 11.804688 C 11.035156 11.605469 10.921875 11.394531 10.722656 11.332031 Z M 10.722656 11.332031 "/>
</g>
</svg>
