<?xml version="1.0" encoding="UTF-8"?>
<svg xmlns="http://www.w3.org/2000/svg" xmlns:xlink="http://www.w3.org/1999/xlink" width="20pt" height="20pt" viewBox="0 0 20 20" version="1.1">
<g id="surface1">
<path style=" stroke:none;fill-rule:nonzero;fill:rgb(100%,100%,100%);fill-opacity:1;" d="M 10 1.25 C 4.476562 1.25 0 4.886719 0 9.375 C 0 11.3125 0.835938 13.085938 2.226562 14.480469 C 1.738281 16.449219 0.105469 18.203125 0.0859375 18.222656 C 0 18.3125 -0.0234375 18.445312 0.0273438 18.5625 C 0.078125 18.679688 0.1875 18.75 0.3125 18.75 C 2.902344 18.75 4.84375 17.507812 5.804688 16.742188 C 7.082031 17.222656 8.5 17.5 10 17.5 C 15.523438 17.5 20 13.863281 20 9.375 C 20 4.886719 15.523438 1.25 10 1.25 Z M 5 10.625 C 4.308594 10.625 3.75 10.066406 3.75 9.375 C 3.75 8.683594 4.308594 8.125 5 8.125 C 5.691406 8.125 6.25 8.683594 6.25 9.375 C 6.25 10.066406 5.691406 10.625 5 10.625 Z M 10 10.625 C 9.308594 10.625 8.75 10.066406 8.75 9.375 C 8.75 8.683594 9.308594 8.125 10 8.125 C 10.691406 8.125 11.25 8.683594 11.25 9.375 C 11.25 10.066406 10.691406 10.625 10 10.625 Z M 15 10.625 C 14.308594 10.625 13.75 10.066406 13.75 9.375 C 13.75 8.683594 14.308594 8.125 15 8.125 C 15.691406 8.125 16.25 8.683594 16.25 9.375 C 16.25 10.066406 15.691406 10.625 15 10.625 Z M 15 10.625 "/>
</g>
</svg>
