<?xml version="1.0" encoding="UTF-8"?>
<svg xmlns="http://www.w3.org/2000/svg" xmlns:xlink="http://www.w3.org/1999/xlink" width="20pt" height="20pt" viewBox="0 0 20 20" version="1.1">
<g id="surface1">
<path style=" stroke:none;fill-rule:nonzero;fill:rgb(100%,100%,100%);fill-opacity:1;" d="M 4.0625 8.75 L 0.9375 8.75 C 0.417969 8.75 0 9.167969 0 9.6875 L 0 19.0625 C 0 19.582031 0.417969 20 0.9375 20 L 4.0625 20 C 4.582031 20 5 19.582031 5 19.0625 L 5 9.6875 C 5 9.167969 4.582031 8.75 4.0625 8.75 Z M 2.5 18.4375 C 1.980469 18.4375 1.5625 18.019531 1.5625 17.5 C 1.5625 16.980469 1.980469 16.5625 2.5 16.5625 C 3.019531 16.5625 3.4375 16.980469 3.4375 17.5 C 3.4375 18.019531 3.019531 18.4375 2.5 18.4375 Z M 15 3.183594 C 15 4.839844 13.984375 5.769531 13.699219 6.875 L 17.671875 6.875 C 18.976562 6.875 19.992188 7.957031 20 9.144531 C 20.003906 9.84375 19.707031 10.597656 19.242188 11.066406 L 19.238281 11.070312 C 19.621094 11.980469 19.558594 13.257812 18.871094 14.175781 C 19.210938 15.1875 18.871094 16.429688 18.234375 17.09375 C 18.402344 17.78125 18.320312 18.367188 17.992188 18.839844 C 17.195312 19.984375 15.21875 20 13.546875 20 L 13.4375 20 C 11.550781 20 10.007812 19.3125 8.765625 18.761719 C 8.144531 18.484375 7.328125 18.140625 6.710938 18.128906 C 6.453125 18.125 6.25 17.914062 6.25 17.660156 L 6.25 9.308594 C 6.25 9.183594 6.300781 9.066406 6.390625 8.976562 C 7.9375 7.449219 8.601562 5.828125 9.871094 4.558594 C 10.449219 3.980469 10.660156 3.105469 10.863281 2.257812 C 11.035156 1.535156 11.398438 0 12.1875 0 C 13.125 0 15 0.3125 15 3.183594 Z M 15 3.183594 "/>
</g>
</svg>
