<?xml version="1.0" encoding="UTF-8"?>
<svg xmlns="http://www.w3.org/2000/svg" xmlns:xlink="http://www.w3.org/1999/xlink" width="20pt" height="20pt" viewBox="0 0 20 20" version="1.1">
<g id="surface1">
<path style=" stroke:none;fill-rule:nonzero;fill:rgb(100%,100%,100%);fill-opacity:1;" d="M 20 11.285156 C 19.980469 11.964844 19.40625 12.5 18.722656 12.5 L 16.5625 12.5 L 16.5625 13.125 C 16.5625 13.980469 16.371094 14.789062 16.03125 15.511719 L 18.382812 17.867188 C 18.871094 18.355469 18.871094 19.144531 18.382812 19.632812 C 17.894531 20.121094 17.105469 20.121094 16.617188 19.632812 L 14.476562 17.496094 C 13.511719 18.28125 12.28125 18.75 10.9375 18.75 L 10.9375 9.21875 C 10.9375 8.960938 10.726562 8.75 10.46875 8.75 L 9.53125 8.75 C 9.273438 8.75 9.0625 8.960938 9.0625 9.21875 L 9.0625 18.75 C 7.71875 18.75 6.488281 18.28125 5.523438 17.496094 L 3.382812 19.632812 C 2.894531 20.121094 2.105469 20.121094 1.617188 19.632812 C 1.128906 19.144531 1.128906 18.355469 1.617188 17.867188 L 3.96875 15.511719 C 3.628906 14.789062 3.4375 13.980469 3.4375 13.125 L 3.4375 12.5 L 1.277344 12.5 C 0.59375 12.5 0.0195312 11.964844 0 11.285156 C -0.0195312 10.578125 0.546875 10 1.25 10 L 3.4375 10 L 3.4375 7.707031 L 1.617188 5.882812 C 1.128906 5.394531 1.128906 4.605469 1.617188 4.117188 C 2.105469 3.628906 2.894531 3.628906 3.382812 4.117188 L 5.519531 6.25 L 14.480469 6.25 L 16.617188 4.117188 C 17.105469 3.628906 17.894531 3.628906 18.382812 4.117188 C 18.871094 4.605469 18.871094 5.394531 18.382812 5.882812 L 16.5625 7.707031 L 16.5625 10 L 18.75 10 C 19.453125 10 20.019531 10.578125 20 11.285156 Z M 10.039062 0 C 7.621094 0 5.664062 1.957031 5.664062 4.375 L 14.414062 4.375 C 14.414062 1.957031 12.457031 0 10.039062 0 Z M 10.039062 0 "/>
</g>
</svg>
