<?xml version="1.0" encoding="UTF-8"?>
<svg xmlns="http://www.w3.org/2000/svg" xmlns:xlink="http://www.w3.org/1999/xlink" width="20pt" height="20pt" viewBox="0 0 20 20" version="1.1">
<g id="surface1">
<path style=" stroke:none;fill-rule:nonzero;fill:rgb(0%,0%,0%);fill-opacity:1;" d="M 17.207031 3.457031 L 15.175781 5.488281 L 16.210938 6.523438 C 16.578125 6.890625 16.578125 7.484375 16.210938 7.847656 L 15.53125 8.527344 C 15.992188 9.546875 16.25 10.679688 16.25 11.871094 C 16.25 16.359375 12.613281 19.996094 8.125 19.996094 C 3.636719 19.996094 0 16.363281 0 11.875 C 0 7.386719 3.636719 3.75 8.125 3.75 C 9.316406 3.75 10.449219 4.007812 11.46875 4.46875 L 12.148438 3.789062 C 12.515625 3.421875 13.109375 3.421875 13.472656 3.789062 L 14.507812 4.824219 L 16.539062 2.792969 Z M 19.53125 2.34375 L 18.59375 2.34375 C 18.335938 2.34375 18.125 2.554688 18.125 2.8125 C 18.125 3.070312 18.335938 3.28125 18.59375 3.28125 L 19.53125 3.28125 C 19.789062 3.28125 20 3.070312 20 2.8125 C 20 2.554688 19.789062 2.34375 19.53125 2.34375 Z M 17.1875 0 C 16.929688 0 16.71875 0.210938 16.71875 0.46875 L 16.71875 1.40625 C 16.71875 1.664062 16.929688 1.875 17.1875 1.875 C 17.445312 1.875 17.65625 1.664062 17.65625 1.40625 L 17.65625 0.46875 C 17.65625 0.210938 17.445312 0 17.1875 0 Z M 18.511719 2.148438 L 19.175781 1.484375 C 19.359375 1.300781 19.359375 1.003906 19.175781 0.820312 C 18.992188 0.636719 18.695312 0.636719 18.511719 0.820312 L 17.847656 1.484375 C 17.664062 1.667969 17.664062 1.964844 17.847656 2.148438 C 18.035156 2.332031 18.332031 2.332031 18.511719 2.148438 Z M 15.863281 2.148438 C 16.046875 2.332031 16.34375 2.332031 16.527344 2.148438 C 16.710938 1.964844 16.710938 1.667969 16.527344 1.484375 L 15.863281 0.820312 C 15.679688 0.636719 15.382812 0.636719 15.199219 0.820312 C 15.015625 1.003906 15.015625 1.300781 15.199219 1.484375 Z M 18.511719 3.476562 C 18.328125 3.292969 18.03125 3.292969 17.847656 3.476562 C 17.664062 3.660156 17.664062 3.957031 17.847656 4.140625 L 18.511719 4.804688 C 18.695312 4.988281 18.992188 4.988281 19.175781 4.804688 C 19.359375 4.621094 19.359375 4.324219 19.175781 4.140625 Z M 4.375 10.625 C 4.375 9.246094 5.496094 8.125 6.875 8.125 C 7.21875 8.125 7.5 7.84375 7.5 7.5 C 7.5 7.15625 7.21875 6.875 6.875 6.875 C 4.808594 6.875 3.125 8.558594 3.125 10.625 C 3.125 10.96875 3.40625 11.25 3.75 11.25 C 4.09375 11.25 4.375 10.96875 4.375 10.625 Z M 4.375 10.625 "/>
</g>
</svg>
